<svg width="286" height="72" viewBox="0 0 286 72" fill="none" xmlns="http://www.w3.org/2000/svg">
<path d="M12.788 30.12C15.0546 30.12 17.0346 30.5533 18.728 31.42C20.4213 32.2733 21.7346 33.4733 22.668 35.02C23.6146 36.5667 24.088 38.3667 24.088 40.42C24.088 42.3133 23.5946 44.0267 22.608 45.56C21.6213 47.0933 20.2546 48.3133 18.508 49.22C16.7746 50.1133 14.7613 50.56 12.468 50.56C10.2013 50.56 8.2213 50.1267 6.52797 49.26C4.83464 48.38 3.51464 47.1667 2.56797 45.62C1.63464 44.0733 1.16797 42.2867 1.16797 40.26C1.16797 38.3267 1.6613 36.6 2.64797 35.08C3.63464 33.5467 4.99464 32.34 6.72797 31.46C8.47464 30.5667 10.4946 30.12 12.788 30.12ZM14.248 47.66C14.7546 47.54 15.1413 47.1867 15.408 46.6C15.6746 46.0133 15.7946 45.16 15.768 44.04C15.7413 42.92 15.5413 41.5 15.168 39.78C14.8213 38.1267 14.428 36.78 13.988 35.74C13.5613 34.7 13.0946 33.9533 12.588 33.5C12.0813 33.0467 11.5546 32.8867 11.008 33.02C10.5013 33.14 10.1146 33.4933 9.84797 34.08C9.5813 34.6667 9.4613 35.52 9.48797 36.64C9.52797 37.7467 9.72797 39.1667 10.088 40.9C10.4346 42.54 10.828 43.8867 11.268 44.94C11.708 45.98 12.1746 46.7267 12.668 47.18C13.1746 47.62 13.7013 47.78 14.248 47.66ZM40.9098 45.9V45.64H40.6098V36.4C40.6098 35.9733 40.5498 35.6733 40.4298 35.5C40.3232 35.3133 40.1565 35.1867 39.9298 35.12L39.4898 34.98C39.2098 34.8867 39.0032 34.7533 38.8698 34.58C38.7498 34.4067 38.6898 34.1867 38.6898 33.92C38.6898 33.6 38.7765 33.3467 38.9498 33.16C39.1232 32.9733 39.4498 32.7867 39.9298 32.6L44.3698 30.88C45.0498 30.6133 45.5965 30.42 46.0098 30.3C46.4365 30.18 46.8498 30.12 47.2498 30.12C47.8498 30.12 48.3032 30.2933 48.6098 30.64C48.9298 30.9733 49.0898 31.4 49.0898 31.92V45.8C49.0898 46.3333 49.1298 46.7133 49.2098 46.94C49.2898 47.1533 49.4298 47.3067 49.6298 47.4L50.0698 47.6C50.3765 47.7333 50.5965 47.9 50.7298 48.1C50.8632 48.3 50.9298 48.5333 50.9298 48.8C50.9298 49.1733 50.8098 49.4667 50.5698 49.68C50.3298 49.8933 49.9432 50 49.4098 50H44.5098C43.5632 50 42.7232 49.5933 41.9898 48.78C41.2698 47.9667 40.9098 47.0067 40.9098 45.9ZM27.6898 44.16V36.4C27.6898 35.9733 27.6298 35.6733 27.5098 35.5C27.4032 35.3133 27.2365 35.1867 27.0098 35.12L26.5698 34.98C26.2898 34.8867 26.0832 34.7533 25.9498 34.58C25.8298 34.4067 25.7698 34.1867 25.7698 33.92C25.7698 33.6 25.8565 33.3467 26.0298 33.16C26.2032 32.9733 26.5298 32.7867 27.0098 32.6L31.4498 30.88C32.1698 30.6 32.7365 30.4067 33.1498 30.3C33.5632 30.18 33.9298 30.12 34.2498 30.12C34.8898 30.12 35.3698 30.2933 35.6898 30.64C36.0098 30.9733 36.1698 31.4 36.1698 31.92V42.96C36.1698 43.8133 36.3632 44.4533 36.7498 44.88C37.1498 45.3067 37.7032 45.52 38.4098 45.52C38.8498 45.52 39.3098 45.4333 39.7898 45.26C40.2698 45.0867 40.6965 44.8333 41.0698 44.5L41.7698 43.88L42.9698 45.16L42.3698 45.72C40.4898 47.52 38.8565 48.78 37.4698 49.5C36.0832 50.2067 34.8098 50.56 33.6498 50.56C31.8765 50.56 30.4365 49.9667 29.3298 48.78C28.2365 47.5933 27.6898 46.0533 27.6898 44.16ZM62.782 39.08C62.782 37.04 63.0487 35.36 63.582 34.04C64.1154 32.7067 64.822 31.72 65.702 31.08C66.5954 30.44 67.5687 30.12 68.622 30.12C70.0354 30.12 71.1154 30.5467 71.862 31.4C72.622 32.24 73.002 33.5133 73.002 35.22C73.002 36.9667 72.6487 38.2533 71.942 39.08C71.2487 39.9067 70.342 40.32 69.222 40.32C68.0887 40.32 67.2354 40.0333 66.662 39.46C66.102 38.8733 65.822 38.0667 65.822 37.04V36.2C65.8087 35.8533 65.7287 35.5933 65.582 35.42C65.4487 35.2333 65.2354 35.14 64.942 35.14C64.6754 35.14 64.4354 35.26 64.222 35.5C64.022 35.7267 63.862 36.1067 63.742 36.64C63.622 37.16 63.562 37.8667 63.562 38.76L62.782 39.08ZM63.002 31.92L63.562 36.1V45.8C63.562 46.2667 63.6287 46.6 63.762 46.8C63.8954 46.9867 64.202 47.1267 64.682 47.22L66.202 47.52C66.602 47.6 66.8954 47.74 67.082 47.94C67.2687 48.14 67.362 48.42 67.362 48.78C67.362 49.1667 67.2287 49.4667 66.962 49.68C66.7087 49.8933 66.3287 50 65.822 50H54.762C54.2287 50 53.842 49.8933 53.602 49.68C53.362 49.4667 53.242 49.1733 53.242 48.8C53.242 48.5333 53.3087 48.3 53.442 48.1C53.5754 47.9 53.7954 47.7333 54.102 47.6L54.542 47.4C54.742 47.3067 54.882 47.1533 54.962 46.94C55.042 46.7133 55.082 46.3333 55.082 45.8V36.48C55.082 36.0533 55.022 35.7533 54.902 35.58C54.7954 35.3933 54.6287 35.2667 54.402 35.2L53.962 35.06C53.682 34.9667 53.4754 34.8333 53.342 34.66C53.222 34.4867 53.162 34.2667 53.162 34C53.162 33.68 53.2487 33.4267 53.422 33.24C53.6087 33.04 53.9354 32.8533 54.402 32.68L58.702 31C59.6487 30.6267 60.3287 30.3867 60.742 30.28C61.1554 30.1733 61.4754 30.12 61.702 30.12C62.0754 30.12 62.362 30.26 62.562 30.54C62.762 30.8067 62.9087 31.2667 63.002 31.92ZM102.751 36.3C102.751 37.3133 102.365 38.1733 101.591 38.88C100.831 39.5867 99.8114 39.94 98.5314 39.94C97.2914 39.94 96.3581 39.6133 95.7314 38.96C95.1181 38.2933 94.8114 37.4467 94.8114 36.42V35.78C94.8114 34.9133 94.6314 34.2333 94.2714 33.74C93.9114 33.2333 93.4381 32.98 92.8514 32.98C92.3847 32.98 91.9447 33.1533 91.5314 33.5C91.1314 33.8467 90.8047 34.38 90.5514 35.1C90.2981 35.8067 90.1714 36.7067 90.1714 37.8C90.1714 39.3467 90.4314 40.64 90.9514 41.68C91.4847 42.72 92.2114 43.5067 93.1314 44.04C94.0514 44.56 95.0981 44.82 96.2714 44.82C97.1247 44.82 97.8914 44.72 98.5714 44.52C99.2647 44.3067 99.9514 43.9 100.631 43.3C101.018 42.9533 101.311 42.72 101.511 42.6C101.711 42.48 101.905 42.42 102.091 42.42C102.358 42.42 102.551 42.5533 102.671 42.82C102.805 43.0867 102.871 43.4133 102.871 43.8C102.871 44.9867 102.471 46.1 101.671 47.14C100.885 48.1667 99.7847 48.9933 98.3714 49.62C96.9581 50.2467 95.3181 50.56 93.4514 50.56C91.4114 50.56 89.5781 50.16 87.9514 49.36C86.3381 48.5467 85.0581 47.42 84.1114 45.98C83.1647 44.5267 82.6914 42.8333 82.6914 40.9C82.6914 38.8333 83.1447 36.9867 84.0514 35.36C84.9714 33.7333 86.2647 32.4533 87.9314 31.52C89.6114 30.5867 91.5914 30.12 93.8714 30.12C95.6981 30.12 97.2714 30.4 98.5914 30.96C99.9247 31.5067 100.951 32.2467 101.671 33.18C102.391 34.1133 102.751 35.1533 102.751 36.3ZM116.616 30.12C118.883 30.12 120.863 30.5533 122.556 31.42C124.249 32.2733 125.563 33.4733 126.496 35.02C127.443 36.5667 127.916 38.3667 127.916 40.42C127.916 42.3133 127.423 44.0267 126.436 45.56C125.449 47.0933 124.083 48.3133 122.336 49.22C120.603 50.1133 118.589 50.56 116.296 50.56C114.029 50.56 112.049 50.1267 110.356 49.26C108.663 48.38 107.343 47.1667 106.396 45.62C105.463 44.0733 104.996 42.2867 104.996 40.26C104.996 38.3267 105.489 36.6 106.476 35.08C107.463 33.5467 108.823 32.34 110.556 31.46C112.303 30.5667 114.323 30.12 116.616 30.12ZM118.076 47.66C118.583 47.54 118.969 47.1867 119.236 46.6C119.503 46.0133 119.623 45.16 119.596 44.04C119.569 42.92 119.369 41.5 118.996 39.78C118.649 38.1267 118.256 36.78 117.816 35.74C117.389 34.7 116.923 33.9533 116.416 33.5C115.909 33.0467 115.383 32.8867 114.836 33.02C114.329 33.14 113.943 33.4933 113.676 34.08C113.409 34.6667 113.289 35.52 113.316 36.64C113.356 37.7467 113.556 39.1667 113.916 40.9C114.263 42.54 114.656 43.8867 115.096 44.94C115.536 45.98 116.003 46.7267 116.496 47.18C117.003 47.62 117.529 47.78 118.076 47.66ZM140.398 21.6V45.8C140.398 46.3333 140.438 46.7133 140.518 46.94C140.598 47.1533 140.738 47.3067 140.938 47.4L141.378 47.6C141.685 47.7333 141.905 47.9 142.038 48.1C142.171 48.3 142.238 48.5333 142.238 48.8C142.238 49.1733 142.118 49.4667 141.878 49.68C141.638 49.8933 141.251 50 140.718 50H131.598C131.065 50 130.678 49.8933 130.438 49.68C130.198 49.4667 130.078 49.1733 130.078 48.8C130.078 48.5333 130.145 48.3 130.278 48.1C130.411 47.9 130.631 47.7333 130.938 47.6L131.378 47.4C131.578 47.3067 131.718 47.1533 131.798 46.94C131.878 46.7133 131.918 46.3333 131.918 45.8V26.08C131.918 25.6533 131.858 25.3533 131.738 25.18C131.631 24.9933 131.465 24.8667 131.238 24.8L130.798 24.66C130.518 24.5667 130.311 24.4333 130.178 24.26C130.058 24.0867 129.998 23.8667 129.998 23.6C129.998 23.28 130.085 23.0267 130.258 22.84C130.431 22.6533 130.758 22.4667 131.238 22.28L135.678 20.56C136.398 20.28 136.965 20.0867 137.378 19.98C137.791 19.86 138.158 19.8 138.478 19.8C139.118 19.8 139.598 19.9733 139.918 20.32C140.238 20.6533 140.398 21.08 140.398 21.6ZM154.46 21.6V45.8C154.46 46.3333 154.5 46.7133 154.58 46.94C154.66 47.1533 154.8 47.3067 155 47.4L155.44 47.6C155.747 47.7333 155.967 47.9 156.1 48.1C156.234 48.3 156.3 48.5333 156.3 48.8C156.3 49.1733 156.18 49.4667 155.94 49.68C155.7 49.8933 155.314 50 154.78 50H145.66C145.127 50 144.74 49.8933 144.5 49.68C144.26 49.4667 144.14 49.1733 144.14 48.8C144.14 48.5333 144.207 48.3 144.34 48.1C144.474 47.9 144.694 47.7333 145 47.6L145.44 47.4C145.64 47.3067 145.78 47.1533 145.86 46.94C145.94 46.7133 145.98 46.3333 145.98 45.8V26.08C145.98 25.6533 145.92 25.3533 145.8 25.18C145.694 24.9933 145.527 24.8667 145.3 24.8L144.86 24.66C144.58 24.5667 144.374 24.4333 144.24 24.26C144.12 24.0867 144.06 23.8667 144.06 23.6C144.06 23.28 144.147 23.0267 144.32 22.84C144.494 22.6533 144.82 22.4667 145.3 22.28L149.74 20.56C150.46 20.28 151.027 20.0867 151.44 19.98C151.854 19.86 152.22 19.8 152.54 19.8C153.18 19.8 153.66 19.9733 153.98 20.32C154.3 20.6533 154.46 21.08 154.46 21.6ZM178.463 37.84C178.463 38.7733 178.21 39.5 177.703 40.02C177.196 40.5267 176.47 40.78 175.523 40.78H163.663V38.7H169.003C169.736 38.7 170.103 38.3533 170.103 37.66C170.103 35.98 169.91 34.78 169.523 34.06C169.136 33.34 168.623 32.98 167.983 32.98C167.516 32.98 167.096 33.1533 166.723 33.5C166.35 33.8467 166.05 34.38 165.823 35.1C165.61 35.8067 165.503 36.7067 165.503 37.8C165.503 40.2267 166.05 42.0067 167.143 43.14C168.236 44.26 169.73 44.82 171.623 44.82C172.503 44.82 173.303 44.72 174.023 44.52C174.743 44.32 175.45 43.9133 176.143 43.3C176.53 42.9533 176.823 42.72 177.023 42.6C177.223 42.48 177.416 42.42 177.603 42.42C177.87 42.42 178.063 42.5533 178.183 42.82C178.316 43.0867 178.383 43.4133 178.383 43.8C178.383 44.9867 177.976 46.1 177.163 47.14C176.363 48.1667 175.243 48.9933 173.803 49.62C172.376 50.2467 170.71 50.56 168.803 50.56C166.763 50.56 164.93 50.16 163.303 49.36C161.676 48.5467 160.39 47.42 159.443 45.98C158.496 44.5267 158.023 42.8333 158.023 40.9C158.023 38.7267 158.456 36.8333 159.323 35.22C160.19 33.6067 161.45 32.3533 163.103 31.46C164.77 30.5667 166.776 30.12 169.123 30.12C171.19 30.12 172.916 30.4533 174.303 31.12C175.69 31.7867 176.73 32.7 177.423 33.86C178.116 35.02 178.463 36.3467 178.463 37.84ZM200.486 36.3C200.486 37.3133 200.099 38.1733 199.326 38.88C198.566 39.5867 197.546 39.94 196.266 39.94C195.026 39.94 194.092 39.6133 193.466 38.96C192.852 38.2933 192.546 37.4467 192.546 36.42V35.78C192.546 34.9133 192.366 34.2333 192.006 33.74C191.646 33.2333 191.172 32.98 190.586 32.98C190.119 32.98 189.679 33.1533 189.266 33.5C188.866 33.8467 188.539 34.38 188.286 35.1C188.032 35.8067 187.906 36.7067 187.906 37.8C187.906 39.3467 188.166 40.64 188.686 41.68C189.219 42.72 189.946 43.5067 190.866 44.04C191.786 44.56 192.832 44.82 194.006 44.82C194.859 44.82 195.626 44.72 196.306 44.52C196.999 44.3067 197.686 43.9 198.366 43.3C198.752 42.9533 199.046 42.72 199.246 42.6C199.446 42.48 199.639 42.42 199.826 42.42C200.092 42.42 200.286 42.5533 200.406 42.82C200.539 43.0867 200.606 43.4133 200.606 43.8C200.606 44.9867 200.206 46.1 199.406 47.14C198.619 48.1667 197.519 48.9933 196.106 49.62C194.692 50.2467 193.052 50.56 191.186 50.56C189.146 50.56 187.312 50.16 185.686 49.36C184.072 48.5467 182.792 47.42 181.846 45.98C180.899 44.5267 180.426 42.8333 180.426 40.9C180.426 38.8333 180.879 36.9867 181.786 35.36C182.706 33.7333 183.999 32.4533 185.666 31.52C187.346 30.5867 189.326 30.12 191.606 30.12C193.432 30.12 195.006 30.4 196.326 30.96C197.659 31.5067 198.686 32.2467 199.406 33.18C200.126 34.1133 200.486 35.1533 200.486 36.3ZM203.65 33.32L203.01 33.06C202.717 32.94 202.497 32.7867 202.35 32.6C202.204 32.4133 202.13 32.1867 202.13 31.92C202.13 31.5333 202.257 31.24 202.51 31.04C202.777 30.8267 203.117 30.72 203.53 30.72H204.63C204.884 30.72 205.117 30.6533 205.33 30.52C205.557 30.3867 205.844 30.1467 206.19 29.8L209.45 26.5C209.89 26.06 210.297 25.7333 210.67 25.52C211.057 25.3067 211.424 25.2 211.77 25.2C212.157 25.2 212.457 25.3267 212.67 25.58C212.897 25.8333 213.01 26.2 213.01 26.68V42.72C213.01 43.6933 213.177 44.4333 213.51 44.94C213.844 45.4467 214.324 45.7 214.95 45.7C215.457 45.7 215.844 45.5733 216.11 45.32C216.39 45.0667 216.61 44.78 216.77 44.46C216.944 44.1267 217.124 43.8333 217.31 43.58C217.497 43.3267 217.75 43.2 218.07 43.2C218.337 43.2 218.55 43.2933 218.71 43.48C218.87 43.6667 218.95 43.9867 218.95 44.44C218.95 45.5733 218.624 46.6067 217.97 47.54C217.317 48.46 216.417 49.1933 215.27 49.74C214.124 50.2867 212.817 50.56 211.35 50.56C209.177 50.56 207.497 50.04 206.31 49C205.124 47.9467 204.53 46.36 204.53 44.24V34.62C204.53 34.2333 204.457 33.9533 204.31 33.78C204.177 33.6067 203.957 33.4533 203.65 33.32ZM210.09 33.56V30.72H217.39C217.804 30.72 218.13 30.8133 218.37 31C218.624 31.1733 218.75 31.4267 218.75 31.76C218.75 32.2667 218.504 32.6933 218.01 33.04C217.517 33.3867 216.704 33.56 215.57 33.56H210.09ZM230.906 31.92V45.8C230.906 46.3333 230.946 46.7133 231.026 46.94C231.106 47.1533 231.246 47.3067 231.446 47.4L231.886 47.6C232.192 47.7333 232.412 47.9 232.546 48.1C232.679 48.3 232.746 48.5333 232.746 48.8C232.746 49.1733 232.626 49.4667 232.386 49.68C232.146 49.8933 231.759 50 231.226 50H222.106C221.572 50 221.186 49.8933 220.946 49.68C220.706 49.4667 220.586 49.1733 220.586 48.8C220.586 48.5333 220.652 48.3 220.786 48.1C220.919 47.9 221.139 47.7333 221.446 47.6L221.886 47.4C222.086 47.3067 222.226 47.1533 222.306 46.94C222.386 46.7133 222.426 46.3333 222.426 45.8V36.4C222.426 35.9733 222.366 35.6733 222.246 35.5C222.139 35.3133 221.972 35.1867 221.746 35.12L221.306 34.98C221.026 34.8867 220.819 34.7533 220.686 34.58C220.566 34.4067 220.506 34.1867 220.506 33.92C220.506 33.6 220.592 33.3467 220.766 33.16C220.939 32.9733 221.266 32.7867 221.746 32.6L226.186 30.88C226.906 30.6 227.472 30.4067 227.886 30.3C228.299 30.18 228.666 30.12 228.986 30.12C229.626 30.12 230.106 30.2933 230.426 30.64C230.746 30.9733 230.906 31.4 230.906 31.92ZM226.226 28.36C224.732 28.36 223.552 28.0133 222.686 27.32C221.819 26.6267 221.386 25.68 221.386 24.48C221.386 23.2933 221.819 22.36 222.686 21.68C223.552 21 224.732 20.66 226.226 20.66C227.719 20.66 228.899 21 229.766 21.68C230.632 22.36 231.066 23.2933 231.066 24.48C231.066 25.68 230.632 26.6267 229.766 27.32C228.899 28.0133 227.719 28.36 226.226 28.36ZM246.108 30.12C248.375 30.12 250.355 30.5533 252.048 31.42C253.742 32.2733 255.055 33.4733 255.988 35.02C256.935 36.5667 257.408 38.3667 257.408 40.42C257.408 42.3133 256.915 44.0267 255.928 45.56C254.942 47.0933 253.575 48.3133 251.828 49.22C250.095 50.1133 248.082 50.56 245.788 50.56C243.522 50.56 241.542 50.1267 239.848 49.26C238.155 48.38 236.835 47.1667 235.888 45.62C234.955 44.0733 234.488 42.2867 234.488 40.26C234.488 38.3267 234.982 36.6 235.968 35.08C236.955 33.5467 238.315 32.34 240.048 31.46C241.795 30.5667 243.815 30.12 246.108 30.12ZM247.568 47.66C248.075 47.54 248.462 47.1867 248.728 46.6C248.995 46.0133 249.115 45.16 249.088 44.04C249.062 42.92 248.862 41.5 248.488 39.78C248.142 38.1267 247.748 36.78 247.308 35.74C246.882 34.7 246.415 33.9533 245.908 33.5C245.402 33.0467 244.875 32.8867 244.328 33.02C243.822 33.14 243.435 33.4933 243.168 34.08C242.902 34.6667 242.782 35.52 242.808 36.64C242.848 37.7467 243.048 39.1667 243.408 40.9C243.755 42.54 244.148 43.8867 244.588 44.94C245.028 45.98 245.495 46.7267 245.988 47.18C246.495 47.62 247.022 47.78 247.568 47.66ZM269.89 31.92V45.8C269.89 46.3333 269.93 46.7067 270.01 46.92C270.09 47.1333 270.23 47.2933 270.43 47.4L270.83 47.62C271.27 47.8733 271.49 48.24 271.49 48.72C271.49 49.5733 270.977 50 269.95 50H261.09C260.557 50 260.17 49.8933 259.93 49.68C259.69 49.4667 259.57 49.1733 259.57 48.8C259.57 48.5333 259.637 48.3 259.77 48.1C259.903 47.9 260.123 47.7333 260.43 47.6L260.87 47.4C261.07 47.3067 261.21 47.1533 261.29 46.94C261.37 46.7133 261.41 46.3333 261.41 45.8V36.4C261.41 35.9733 261.35 35.6733 261.23 35.5C261.123 35.3133 260.957 35.1867 260.73 35.12L260.29 34.98C260.01 34.8867 259.803 34.7533 259.67 34.58C259.55 34.4067 259.49 34.1867 259.49 33.92C259.49 33.6 259.577 33.3467 259.75 33.16C259.923 32.9733 260.25 32.7867 260.73 32.6L265.17 30.88C265.85 30.6133 266.397 30.42 266.81 30.3C267.237 30.18 267.65 30.12 268.05 30.12C268.65 30.12 269.103 30.2933 269.41 30.64C269.73 30.9733 269.89 31.4 269.89 31.92ZM269.17 36.8L267.97 35.52L268.57 34.96C270.45 33.16 272.083 31.9067 273.47 31.2C274.857 30.48 276.13 30.12 277.29 30.12C279.077 30.12 280.517 30.7133 281.61 31.9C282.703 33.0733 283.25 34.6133 283.25 36.52V45.8C283.25 46.3333 283.29 46.7133 283.37 46.94C283.45 47.1533 283.59 47.3067 283.79 47.4L284.23 47.6C284.537 47.7333 284.757 47.9 284.89 48.1C285.023 48.3 285.09 48.5333 285.09 48.8C285.09 49.1733 284.97 49.4667 284.73 49.68C284.49 49.8933 284.103 50 283.57 50H274.71C273.683 50 273.17 49.5733 273.17 48.72C273.17 48.24 273.39 47.8733 273.83 47.62L274.23 47.4C274.43 47.2933 274.57 47.1333 274.65 46.92C274.73 46.7067 274.77 46.3333 274.77 45.8V37.72C274.77 36.8667 274.57 36.2267 274.17 35.8C273.783 35.3733 273.237 35.16 272.53 35.16C272.09 35.16 271.63 35.2467 271.15 35.42C270.67 35.5933 270.243 35.8467 269.87 36.18L269.17 36.8Z" fill="#83888F"/>
<rect width="286" height="72" fill="url(#paint0_linear_7514_2)"/>
<defs>
<linearGradient id="paint0_linear_7514_2" x1="0" y1="0" x2="0" y2="72" gradientUnits="userSpaceOnUse">
<stop stop-color="#FEFCF7" stop-opacity="0.01"/>
<stop offset="1" stop-color="#FEFCF7"/>
</linearGradient>
</defs>
</svg>
